<?xml version="1.0" encoding="UTF-8" standalone="no"?>
<!DOCTYPE svg PUBLIC "-//W3C//DTD SVG 20010904//EN" "http://www.w3.org/TR/2001/REC-SVG-20010904/DTD/svg10.dtd">
<svg version="1.0" xmlns="http://www.w3.org/2000/svg" width="1090.000000pt" height="1280.000000pt" viewBox="0 0 1090.000000 1280.000000" preserveAspectRatio="xMidYMid meet">
<g transform="translate(0.000000,1280.000000) scale(0.100000,-0.100000)" fill="#000000" stroke="none">
<path d="M10465 12791 c-11 -5 -47 -11 -80 -15 -259 -30 -747 -109 -1070 -172 -1437 -282 -2624 -722 -3655 -1354 -630 -387 -1221 -884 -1686 -1420 -651 -751 -1123 -1633 -1402 -2621 -149 -524 -245 -1099 -282 -1689 -13 -213 -13 -759 0 -987 6 -98 20 -264 30 -369 11 -105 20 -193 20 -197 0 -3 -458 -8 -1017 -9 l-1018 -3 -57 -23 c-75 -30 -138 -80 -176 -139 -33 -51 -72 -161 -72 -204 0 -41 40 -150 76 -204 35 -53 3256 -3276 3311 -3314 40 -27 166 -71 204 -71 39 0 161 43 201 71 79 55 3848 3205 3890 3252 172 185 98 489 -142 584 -42 17 -121 18 -1125 23 l-1080 5 -17 85 c-22 117 -55 382 -69 570 -16 198 -15 741 0 930 111 1360 596 2570 1470 3670 223 281 611 692 891 945 579 523 1207 970 1970 1403 185 105 769 404 1015 519 188 89 243 143 286 285 23 78 23 99 0 169 -27 80 -47 115 -94 166 -78 85 -246 144 -322 114z"/>
</g>
</svg>