<?xml version="1.0" encoding="UTF-8" standalone="no"?>
<!DOCTYPE svg PUBLIC "-//W3C//DTD SVG 20010904//EN" "http://www.w3.org/TR/2001/REC-SVG-20010904/DTD/svg10.dtd">
<svg version="1.0" xmlns="http://www.w3.org/2000/svg" width="1280.000000pt" height="1216.000000pt" viewBox="0 0 1280.000000 1216.000000" preserveAspectRatio="xMidYMid meet">
<g transform="translate(0.000000,1216.000000) scale(0.100000,-0.100000)" fill="#000000" stroke="none">
<path d="M395 12146 c-53 -23 -93 -78 -100 -138 -3 -29 -5 -2512 -3 -5518 l3 -5465 21 -35 c11 -19 35 -45 54 -57 l33 -23 1017 0 1017 0 33 23 c19 12 43 38 54 57 l21 35 0 2317 c0 2051 2 2315 15 2305 8 -7 706 -599 1550 -1317 3037 -2583 3941 -3351 3986 -3385 77 -59 172 -46 231 32 l28 36 3 1229 2 1228 2024 0 2023 0 34 23 c18 12 44 38 56 56 l23 34 0 2941 0 2941 -23 39 c-12 22 -38 49 -57 60 -35 21 -37 21 -2056 24 l-2021 2 -6 218 c-4 119 -8 456 -8 747 -1 292 -4 744 -8 1005 -7 541 -4 523 -91 568 -54 28 -118 24 -165 -10 -23 -17 -4289 -3588 -5334 -4465 -107 -90 -198 -163 -203 -163 -4 0 -8 1024 -8 2275 0 2461 4 2300 -52 2352 -12 12 -36 26 -51 32 -45 17 -2003 14 -2042 -3z"/>
</g>
</svg>